<svg width="730" height="138" viewBox="0 0 730 138" fill="none" xmlns="http://www.w3.org/2000/svg">
<g clip-path="url(#clip0_245_482)">
<path d="M13.089 101.059C6.98397 101.059 3.35495 101.144 0 101.323C0.529232 98.2256 0.708793 94.3249 0.708793 88.3841V41.5758C0.708793 35.3705 0.529232 31.5548 0 27.3047H19.2886C18.6649 31.9137 18.5798 34.3977 18.5798 41.3113V85.2768H39.9854C47.508 85.2768 50.5133 85.1918 54.6716 84.6534V101.673C51.4017 101.229 47.0638 101.05 39.9854 101.05H13.089V101.059Z" fill="white" fill-opacity="0.55"/>
<path d="M116.157 101.673C112.348 101.229 109.164 101.05 101.556 101.05H73.6861C66.9573 101.05 64.4813 101.135 60.6821 101.314C61.2114 97.7724 61.3909 94.4856 61.3909 88.3748V39.9703C61.3909 34.4734 61.2114 31.3755 60.6821 27.0309C64.3111 27.2104 66.7872 27.2954 73.6861 27.2954H101.906C107.926 27.2954 110.931 27.1159 115.089 26.672V43.2476C111.016 42.8037 107.831 42.6243 101.906 42.6243H78.9028V55.6581H98.0119C103.852 55.6581 105.969 55.5731 111.28 55.0347V71.4309C107.122 70.987 104.117 70.8075 98.0119 70.8075H78.9028V85.7019H101.726C108.445 85.7019 112.339 85.5225 116.148 85.0786V101.654L116.157 101.673ZM88.1171 3.72119L108.464 12.3159L102.718 22.6863L88.2116 16.0372L73.6105 22.6863L67.7701 12.3159L88.1171 3.72119Z" fill="white" fill-opacity="0.55"/>
<path d="M154.64 101.059C155.169 97.1586 155.348 93.1729 155.348 87.9405V39.9799C155.348 35.1914 155.169 31.2057 154.64 27.0405C158.798 27.22 161.983 27.305 167.644 27.305H187.017C204.539 27.305 214.178 35.7297 214.178 51.1531C214.178 66.5764 204.094 76.3329 186.932 76.3329H172.955V87.6761C172.955 92.9085 173.219 97.2531 173.664 101.059H154.64ZM186.138 61.259C192.329 61.259 195.958 57.8022 195.958 51.682C195.958 45.5618 192.508 42.3789 186.138 42.3789H172.955V61.259H186.138Z" fill="white" fill-opacity="0.55"/>
<path d="M288.583 27.3047C288.053 30.9409 287.874 34.2183 287.874 40.4235V87.9402C287.874 93.7015 288.053 96.7144 288.583 101.059H269.559C270.088 97.3378 270.268 94.0604 270.268 87.9402V70.7413H240.451V87.9402C240.451 93.7015 240.631 97.0733 241.16 101.059H222.136C222.665 97.4228 222.845 94.1454 222.845 87.9402V40.4235C222.845 34.3033 222.665 31.1204 222.136 27.3047H241.16C240.631 31.4698 240.451 34.9266 240.451 40.4235V55.1385H270.268V40.4235C270.268 34.3033 270.088 30.7615 269.559 27.3047H288.583Z" fill="white" fill-opacity="0.55"/>
<path d="M349.803 101.059C349.095 96.7996 348.565 94.4951 347.677 91.4822L345.286 83.9453H320.072L317.681 91.4822C316.528 95.024 315.914 97.7724 315.47 101.059H294.763C296.086 98.3958 296.89 96.2707 299.007 90.245L318.116 36.8819C319.703 32.5373 320.507 29.8833 320.951 27.3049H344.039C344.662 29.8739 345.277 32.1784 347.044 36.8819L366.238 90.245C367.92 94.939 369.338 98.5753 370.481 101.059H349.775H349.803ZM328.662 25.2648L323.975 18.9746L344.672 0L353.962 12.4105L328.662 25.2648ZM332.547 42.4638L324.315 69.0603H340.948L332.547 42.4638Z" fill="white" fill-opacity="0.55"/>
<path d="M407.31 87.6666C407.31 92.984 407.49 96.8847 408.019 101.05H388.466C388.995 96.8847 389.175 93.2485 389.175 87.6666V42.9928H378.732C373.156 42.9928 371.653 43.0778 365.369 43.6161V26.6816C368.289 27.0405 373.156 27.305 378.552 27.305H417.3C423.49 27.305 427.034 27.1255 431.097 26.6816V43.6161C427.119 43.1722 423.669 42.9928 417.3 42.9928H407.301V87.6666H407.31Z" fill="white" fill-opacity="0.55"/>
<path d="M464.647 33.765C464.647 41.2547 458.598 47.3088 451.18 47.3088C443.761 47.3088 437.665 41.2547 437.665 33.8217C437.665 26.3886 443.714 20.2778 451.18 20.2778C458.646 20.2778 464.647 26.3319 464.647 33.765ZM453.051 24.4524C456.68 24.4524 458.825 26.3792 458.825 29.6282C458.825 32.3294 457.89 33.6517 455.47 34.53C456.897 34.9173 457.228 35.3517 458.438 38.2229C459.043 39.7058 459.534 40.9808 460.035 42.1331C462.18 39.8191 463.276 36.9007 463.276 33.8217C463.276 27.1064 457.89 21.6473 451.189 21.6473C444.489 21.6473 439.045 27.0403 439.045 33.8217C439.045 40.603 444.489 45.9393 451.189 45.9393C454.043 45.9393 456.737 45.0043 458.882 43.1814H454.705C454.591 42.407 454.317 41.4719 453.665 39.7719C452.9 37.6751 452.73 37.3446 452.125 36.9101C451.69 36.5795 451.246 36.419 450.584 36.419H448.827V39.668C448.827 41.3208 448.883 41.9253 448.987 43.1909H443.714C443.827 42.1425 443.874 41.2642 443.874 39.7247V27.8337C443.874 26.3981 443.818 25.3025 443.714 24.4241C444.149 24.4808 445.746 24.4808 447.173 24.4808H453.051V24.4524ZM451.841 32.1122C452.994 32.1122 453.712 31.3943 453.712 30.2988C453.712 29.2032 452.994 28.6459 451.841 28.6459H448.817V32.1122H451.841Z" fill="white" fill-opacity="0.55"/>
<path d="M517.409 97.4229C517.409 100.7 516.521 102.92 514.669 104.336C512.986 105.574 509.622 106.197 504.849 106.197C503.347 106.197 502.014 106.112 498.036 105.933C497.591 102.74 497.327 101.409 496.448 98.934C493.027 100.118 486.629 102.038 477.254 104.695C476.016 105.054 475.487 105.224 474.598 105.583L470.62 93.3522C474.693 93.2672 483.094 91.841 489.729 89.9804C488.046 88.2992 484.247 85.1069 482.3 83.6901C478.586 84.663 477.169 85.0219 472.831 85.8152C471.772 80.2334 470.884 77.7494 468.229 72.7814C473.096 72.517 477.868 71.8086 483.274 70.6563C488.67 69.5041 492.564 68.2668 496.987 66.1323H484.776C485.041 64.2717 485.221 62.7605 485.221 60.9943V58.6898C485.221 57.4525 485.221 57.0936 485.4 55.318C482.13 59.3982 479.031 62.0521 474.078 65.3389C472.491 60.5504 471.338 58.2459 468.597 54.6096C473.2 52.664 476.914 50.265 480.363 47.2522H477.358C474.617 47.2522 472.491 47.3372 470.279 47.6111V36.8818C472.67 37.2407 474.702 37.4107 477.537 37.4107H485.145V34.6623C482.404 34.7473 482.14 34.8417 475.326 35.0212C474.003 30.6766 473.114 28.5515 471.083 25.2741C473.209 25.3591 474.267 25.3591 475.42 25.3591C487.366 25.3591 498.603 23.9424 502.317 21.9023L509.395 31.7438C505.766 32.5372 501.523 33.1605 496.92 33.6894V37.4107H500.37C504.178 37.4107 505.322 37.3257 507.004 37.1462V37.5051C511.777 32.4522 514.527 27.6637 515.585 22.3462L528.325 24.3863C527.531 25.803 527.351 26.1619 526.028 29.0804H545.667C548.143 29.0804 549.56 28.9954 550.978 28.7215C550.713 30.0532 550.713 30.7616 550.713 33.9539C550.534 46.7232 549.39 56.7347 547.708 60.286C545.846 64.1867 542.661 65.7828 536.651 65.7828C534.26 65.7828 532.492 65.6978 528.514 65.3389C528.249 61.9671 527.805 59.9271 526.832 56.9142C524.97 59.3037 523.826 60.456 520.641 63.3839C518.874 60.2765 516.218 57.2636 512.854 54.3452C517.192 50.8034 518.43 49.6511 520.377 47.0727C522.059 44.6832 523.477 42.3786 524.715 39.6302H520.377C517.901 43.5309 516.304 45.3915 512.504 49.2072C511.796 48.4139 511.266 47.6961 510.917 47.2616C508.885 44.6926 508.441 44.1543 507.023 42.7375V47.4316C504.897 47.3466 504.632 47.2522 501.627 47.2522C504.367 49.5567 506.409 50.7089 510.388 52.3901C507.732 55.318 506.579 57.1786 504.991 60.9849L505.35 60.626H516.672C519.942 63.8183 522.333 65.4145 526.756 67.1901C534.628 70.2974 542.765 71.9786 553.822 72.772C551.346 77.7399 550.373 80.5734 549.314 86.0702C543.739 85.1824 541.707 84.7385 538.522 83.9452L537.463 84.833C534.723 87.1375 533.485 88.0253 530.205 89.8859C537.019 92.3699 542.236 93.5222 550.732 94.2305C547.812 98.4807 546.574 100.965 544.986 105.668C537.019 104.336 532.332 102.92 525.962 100.171C523.306 99.019 521.624 98.2257 517.466 95.8267V97.4229H517.409ZM501.57 94.6744C503.782 94.5894 504.405 94.1455 504.405 92.5494V81.4706C504.405 79.3455 504.226 77.3905 503.961 75.8887H517.759C517.494 77.9288 517.4 79.4305 517.4 81.8295V95.4772L522.617 87.5908C521.029 85.4658 520.849 85.2863 519.432 83.7751C522.267 82.264 523.41 81.5556 526.066 79.695C519.252 76.8616 516.067 74.8215 510.586 69.8535C505.369 74.4626 502.005 76.5027 495.456 79.3361C497.138 80.7528 497.752 81.2817 499.793 83.2368L493.868 88.7337C496.344 87.9403 497.402 87.4964 501.296 86.1647L501.561 94.6744H501.57ZM496.703 60.371C496.703 62.5905 496.788 64.2717 497.147 66.0473C500.776 64.2717 502.723 62.9494 504.67 61.2588C500.691 58.8692 498.744 57.2731 496.533 54.7891C496.618 56.3853 496.713 57.1786 496.713 58.1609V60.3804L496.703 60.371ZM535.545 39.6208C533.957 44.9382 531.746 49.7267 528.646 54.3357C530.678 54.6946 532.01 54.7796 533.248 54.7796C535.11 54.7796 535.989 54.4207 536.433 53.5424C537.492 51.4173 538.295 46.4493 538.56 39.6208H535.554H535.545Z" fill="white" fill-opacity="0.55"/>
<path d="M564.823 45.3822C571.457 49.1034 574.992 51.5024 581.276 56.2815L573.584 67.5396C567.034 62.0428 563.585 59.5588 557.036 55.6581L564.823 45.3727V45.3822ZM575.53 45.0327C569.605 39.7153 566.241 37.0519 559.606 32.8017L568.008 23.0547C574.292 26.6909 577.827 29.2599 583.667 33.954L580.747 37.9397C583.223 38.2041 585.879 38.3836 589.687 38.3836V31.385C589.687 27.9282 589.602 25.8881 589.243 23.763H603.485C603.221 25.2742 603.136 27.1348 603.136 30.9411V38.3836H614.552V31.2055C614.552 27.3898 614.467 25.4442 614.193 23.763H628.435C628.085 25.7087 627.991 27.6637 627.991 31.3V38.393H628.614C633.481 38.393 636.931 38.2136 639.227 37.8641V51.5118C636.042 51.2474 632.593 51.0679 628.879 51.0679H627.991V65.9624H630.467C634.71 65.9624 637.895 65.7829 640.645 65.4334V79.1756C637.725 78.8167 634.54 78.6467 630.646 78.6467H622.774C624.985 81.924 625.874 82.9913 628.435 85.4753C632.149 89.0171 635.778 91.6805 640.995 94.514C637.195 99.123 635.154 102.051 632.413 107.009C623.473 100.984 617.283 94.8634 610.828 85.3808L621.885 78.6467H588.619C584.99 78.6467 581.626 78.8262 579.065 79.0906C576.589 88.0443 575.88 90.2638 573.319 96.469C571.901 99.9258 571.108 101.522 570.134 103.383C569.425 104.799 569.34 104.894 568.632 106.49L557.31 96.2046C561.288 91.6805 565.362 82.283 568.632 69.7025L578.715 76.7105V65.4523C581.191 65.8112 584.641 65.9813 588.629 65.9813H589.687V51.0868C585 51.0868 582.968 51.2663 580.397 51.5307V38.4119L575.53 45.061V45.0327ZM604.638 85.4564C598.618 95.5623 594.025 100.795 585.529 107C581.721 102.126 579.953 100.351 575.445 96.7146C579.339 94.3251 581.465 92.7289 584.471 89.886C588.279 86.2498 590.217 83.7658 592.702 78.9867L604.648 85.4564H604.638ZM614.542 65.9529V51.0585H603.126V65.9529H614.542Z" fill="white" fill-opacity="0.55"/>
<path d="M690.185 73.3955H713.537C716.637 73.3955 718.139 73.3105 719.283 73.131L725.832 79.3362C725.123 80.1296 724.859 80.4885 723.8 81.9997C720.436 86.6087 718.14 89.2721 714.596 92.5495C720.521 93.7017 723.8 94.1457 729.631 94.4951C726.891 99.1042 725.653 102.032 724.415 106.821C715.304 105.309 709.199 103.628 702.385 100.615C696.101 103.628 691.943 105.045 683.626 106.821C682.303 102.297 681.235 99.7275 679.203 96.2707C677.341 105.139 674.865 106.462 660.803 106.462C659.3 106.462 658.062 106.462 655.586 106.282C654.962 101.229 654.348 98.3958 652.751 93.5129C656.824 94.3062 660.444 94.6651 663.629 94.6651C665.925 94.6651 666.813 94.3062 667.258 93.2484C667.702 92.1811 667.966 90.415 668.051 87.4871H652.477C650.265 87.4871 649.736 87.4871 646.996 87.6665C649.122 81.3763 650.445 74.2833 650.974 67.2752C650.974 67.0958 651.059 65.7641 651.154 63.2895C653.365 63.469 655.047 63.554 658.412 63.554H668.146V59.4738H664.782C662.041 59.4738 660.538 59.5588 658.676 59.7383V58.1421C655.756 59.2944 654.254 59.8233 650.445 60.8906C648.498 55.4787 647.44 53.3536 644.699 49.1885C650.18 47.9512 653.46 47.0634 658.062 45.2028C654.962 42.0104 651.607 38.9975 647.449 35.8052L656.739 28.3627C658.865 30.1383 659.395 30.6672 661.162 32.2634V23.9331C663.553 24.292 665.235 24.377 669.564 24.377H686.461C690.175 24.377 691.678 24.292 693.804 24.0181C694.957 27.2104 695.751 28.5422 698.407 31.3756C701.062 28.7122 702.915 26.5871 703.983 24.6415C704.039 24.5848 704.156 24.3487 704.332 23.9331L714.596 29.8739C712.913 32.1784 709.464 36.0791 707.073 38.5631C708.49 39.4509 709.02 39.8004 710.343 40.6032C713.792 37.3258 715.115 35.6352 717.336 32.0084L727.514 38.0342C725.747 40.2537 722.732 43.3516 720.436 45.5711C723.8 46.9028 725.568 47.4317 729.991 48.499C727.25 52.3147 725.747 55.1481 724.33 59.3983C725.747 59.9272 726.276 60.1066 727.959 60.5505C727.514 65.868 726.9 67.7286 725.303 69.0603C723.441 70.7415 720.171 71.3648 713.981 71.3648C704.162 71.3648 701.951 70.477 701.951 66.5763V58.8599H696.205C695.411 64.8007 693.105 69.3153 688.777 73.3955H690.194H690.185ZM682.757 73.046C683.995 73.2254 684.344 73.3105 686.026 73.3105C684.165 71.0059 682.577 69.4948 680.006 67.5491C680.006 70.562 680.091 71.8937 680.356 73.4899C678.409 73.3105 677.436 73.3105 673.457 73.3105H662.4C662.224 74.6075 661.987 75.9676 661.691 77.3906H674.251C677.256 77.3906 678.939 77.3056 680.8 77.1262C680.621 78.4579 680.621 78.9018 680.536 80.8474C680.271 88.0254 680.006 91.2178 679.383 95.2979C684.25 94.769 685.932 94.5046 690.09 93.3523C687.699 91.5767 686.556 90.5189 683.635 87.3265L691.423 83.1614H689.826C686.376 83.1614 684.779 83.2464 682.747 83.5203V73.0649L682.757 73.046ZM666.388 34.3979C665.415 34.3979 664.886 34.3979 663.468 34.4829C665.415 36.3719 667.125 38.0845 668.6 39.6209C670.991 38.0247 672.229 36.9575 674.969 34.3885H666.388V34.3979ZM680.016 65.1502C683.91 61.7784 685.856 57.2638 685.856 51.323C685.856 50.3502 685.856 49.9913 685.677 48.839C687.624 49.0185 688.597 49.1035 691.423 49.1035H702.036C695.666 44.5794 692.566 41.661 687.973 35.8996C682.842 42.1049 679.213 45.6467 673.372 49.9063C676.472 49.9063 678.06 49.8213 680.356 49.6418C680.091 51.5874 680.006 53.3631 680.006 56.4704V65.1596L680.016 65.1502ZM694.608 83.1519C697.084 85.3714 698.766 86.5237 702.3 88.3843C704.691 86.8732 706.014 85.8154 709.114 83.1519H694.608ZM712.743 60.5411C712.743 61.7784 713.272 62.0523 715.484 62.0523C718.14 62.0523 718.319 61.8728 718.489 58.0666C716.278 57.1788 714.86 56.5554 712.743 55.4976V60.5505V60.5411Z" fill="white" fill-opacity="0.55"/>
<path d="M451.227 49.9157C442.325 49.9157 435.085 42.681 435.085 33.784C435.085 24.8871 442.325 17.6523 451.227 17.6523C460.129 17.6523 467.369 24.8871 467.369 33.784C467.369 42.681 460.129 49.9157 451.227 49.9157ZM451.227 21.7703C444.602 21.7703 439.206 27.1632 439.206 33.784C439.206 40.4048 444.602 45.7978 451.227 45.7978C457.852 45.7978 463.248 40.4048 463.248 33.784C463.248 27.1632 457.852 21.7703 451.227 21.7703Z" fill="white" fill-opacity="0.55"/>
</g>
<path d="M10.9432 124.148H9.17045C9.10227 123.769 8.97538 123.436 8.78977 123.148C8.60417 122.86 8.37689 122.616 8.10795 122.415C7.83902 122.214 7.53788 122.062 7.20455 121.96C6.875 121.858 6.52462 121.807 6.15341 121.807C5.48295 121.807 4.88258 121.975 4.35227 122.312C3.82576 122.65 3.40909 123.144 3.10227 123.795C2.79924 124.447 2.64773 125.242 2.64773 126.182C2.64773 127.129 2.79924 127.928 3.10227 128.58C3.40909 129.231 3.82765 129.723 4.35795 130.057C4.88826 130.39 5.48485 130.557 6.14773 130.557C6.51515 130.557 6.86364 130.508 7.19318 130.409C7.52652 130.307 7.82765 130.157 8.09659 129.96C8.36553 129.763 8.5928 129.523 8.77841 129.239C8.9678 128.951 9.09848 128.621 9.17045 128.25L10.9432 128.256C10.8485 128.828 10.6648 129.354 10.392 129.835C10.1231 130.312 9.77652 130.725 9.35227 131.074C8.93182 131.419 8.45076 131.686 7.90909 131.875C7.36742 132.064 6.77652 132.159 6.13636 132.159C5.12879 132.159 4.23106 131.92 3.44318 131.443C2.6553 130.962 2.03409 130.275 1.57955 129.381C1.12879 128.487 0.903409 127.42 0.903409 126.182C0.903409 124.939 1.13068 123.873 1.58523 122.983C2.03977 122.089 2.66098 121.403 3.44886 120.926C4.23674 120.445 5.13258 120.205 6.13636 120.205C6.75379 120.205 7.32955 120.294 7.86364 120.472C8.40152 120.646 8.88447 120.903 9.3125 121.244C9.74053 121.581 10.0947 121.994 10.375 122.483C10.6553 122.968 10.8447 123.523 10.9432 124.148ZM12.8277 132V123.273H14.4697V124.659H14.5606C14.7197 124.189 15 123.82 15.4015 123.551C15.8068 123.278 16.2652 123.142 16.7765 123.142C16.8826 123.142 17.0076 123.146 17.1515 123.153C17.2993 123.161 17.4148 123.17 17.4981 123.182V124.807C17.4299 124.788 17.3087 124.767 17.1345 124.744C16.9602 124.718 16.786 124.705 16.6118 124.705C16.2102 124.705 15.8523 124.79 15.5379 124.96C15.2273 125.127 14.9811 125.36 14.7993 125.659C14.6174 125.955 14.5265 126.292 14.5265 126.67V132H12.8277ZM22.3372 132.176C21.4773 132.176 20.7368 131.992 20.1156 131.625C19.4981 131.254 19.0209 130.733 18.6838 130.062C18.3504 129.388 18.1838 128.598 18.1838 127.693C18.1838 126.799 18.3504 126.011 18.6838 125.33C19.0209 124.648 19.4906 124.116 20.0928 123.733C20.6989 123.35 21.4072 123.159 22.2178 123.159C22.7103 123.159 23.1875 123.241 23.6497 123.403C24.1118 123.566 24.5266 123.822 24.894 124.17C25.2614 124.519 25.5512 124.972 25.7633 125.528C25.9754 126.081 26.0815 126.754 26.0815 127.545V128.148H19.144V126.875H24.4167C24.4167 126.428 24.3258 126.032 24.144 125.688C23.9622 125.339 23.7065 125.064 23.3769 124.864C23.0512 124.663 22.6686 124.562 22.2292 124.562C21.7519 124.562 21.3353 124.68 20.9792 124.915C20.6269 125.146 20.3542 125.449 20.161 125.824C19.9716 126.195 19.8769 126.598 19.8769 127.034V128.028C19.8769 128.612 19.9792 129.108 20.1838 129.517C20.3921 129.926 20.6819 130.239 21.0531 130.455C21.4243 130.667 21.858 130.773 22.3542 130.773C22.6762 130.773 22.9697 130.727 23.2349 130.636C23.5 130.542 23.7292 130.402 23.9224 130.216C24.1156 130.03 24.2633 129.801 24.3656 129.528L25.9735 129.818C25.8447 130.292 25.6137 130.706 25.2803 131.062C24.9508 131.415 24.536 131.689 24.036 131.886C23.5398 132.08 22.9735 132.176 22.3372 132.176ZM30.4262 132.193C29.8732 132.193 29.3732 132.091 28.9262 131.886C28.4792 131.678 28.1251 131.377 27.8637 130.983C27.6061 130.589 27.4773 130.106 27.4773 129.534C27.4773 129.042 27.572 128.636 27.7614 128.318C27.9508 128 28.2065 127.748 28.5285 127.562C28.8504 127.377 29.2103 127.237 29.608 127.142C30.0057 127.047 30.411 126.975 30.8239 126.926C31.3466 126.866 31.7709 126.816 32.0966 126.778C32.4224 126.737 32.6591 126.67 32.8069 126.58C32.9546 126.489 33.0285 126.341 33.0285 126.136V126.097C33.0285 125.6 32.8883 125.216 32.608 124.943C32.3315 124.67 31.9186 124.534 31.3694 124.534C30.7974 124.534 30.3466 124.661 30.0171 124.915C29.6913 125.165 29.466 125.443 29.341 125.75L27.7444 125.386C27.9338 124.856 28.2103 124.428 28.5739 124.102C28.9413 123.773 29.3637 123.534 29.841 123.386C30.3182 123.235 30.8201 123.159 31.3466 123.159C31.6951 123.159 32.0645 123.201 32.4546 123.284C32.8485 123.364 33.216 123.511 33.5569 123.727C33.9016 123.943 34.1838 124.252 34.4035 124.653C34.6232 125.051 34.733 125.568 34.733 126.205V132H33.0739V130.807H33.0057C32.8959 131.027 32.7311 131.242 32.5114 131.455C32.2917 131.667 32.0095 131.843 31.6648 131.983C31.3201 132.123 30.9073 132.193 30.4262 132.193ZM30.7955 130.83C31.2652 130.83 31.6667 130.737 32.0001 130.551C32.3372 130.366 32.5929 130.123 32.7671 129.824C32.9451 129.521 33.0341 129.197 33.0341 128.852V127.727C32.9735 127.788 32.8561 127.845 32.6819 127.898C32.5114 127.947 32.3163 127.991 32.0966 128.028C31.877 128.062 31.6629 128.095 31.4546 128.125C31.2463 128.152 31.072 128.174 30.9319 128.193C30.6023 128.235 30.3012 128.305 30.0285 128.403C29.7595 128.502 29.5436 128.644 29.3807 128.83C29.2216 129.011 29.1421 129.254 29.1421 129.557C29.1421 129.977 29.2974 130.295 29.608 130.511C29.9186 130.723 30.3145 130.83 30.7955 130.83ZM40.9897 123.273V124.636H36.2226V123.273H40.9897ZM37.501 121.182H39.1999V129.438C39.1999 129.767 39.2491 130.015 39.3476 130.182C39.4461 130.345 39.573 130.456 39.7283 130.517C39.8874 130.574 40.0597 130.602 40.2453 130.602C40.3817 130.602 40.501 130.593 40.6033 130.574C40.7056 130.555 40.7851 130.54 40.8419 130.528L41.1488 131.932C41.0503 131.97 40.9101 132.008 40.7283 132.045C40.5465 132.087 40.3192 132.11 40.0465 132.114C39.5995 132.121 39.1828 132.042 38.7965 131.875C38.4101 131.708 38.0976 131.451 37.859 131.102C37.6203 130.754 37.501 130.316 37.501 129.79V121.182ZM42.7889 132V123.273H44.4878V132H42.7889ZM43.6469 121.926C43.3514 121.926 43.0976 121.828 42.8855 121.631C42.6772 121.43 42.573 121.191 42.573 120.915C42.573 120.634 42.6772 120.396 42.8855 120.199C43.0976 119.998 43.3514 119.898 43.6469 119.898C43.9423 119.898 44.1942 119.998 44.4026 120.199C44.6147 120.396 44.7207 120.634 44.7207 120.915C44.7207 121.191 44.6147 121.43 44.4026 121.631C44.1942 121.828 43.9423 121.926 43.6469 121.926ZM54.1592 123.273L50.9944 132H49.1763L46.0058 123.273H47.8297L50.0399 129.989H50.1308L52.3353 123.273H54.1592ZM59.1403 132.176C58.2804 132.176 57.5399 131.992 56.9187 131.625C56.3013 131.254 55.824 130.733 55.4869 130.062C55.1535 129.388 54.9869 128.598 54.9869 127.693C54.9869 126.799 55.1535 126.011 55.4869 125.33C55.824 124.648 56.2937 124.116 56.896 123.733C57.502 123.35 58.2104 123.159 59.021 123.159C59.5134 123.159 59.9907 123.241 60.4528 123.403C60.9149 123.566 61.3297 123.822 61.6971 124.17C62.0645 124.519 62.3543 124.972 62.5664 125.528C62.7785 126.081 62.8846 126.754 62.8846 127.545V128.148H55.9471V126.875H61.2198C61.2198 126.428 61.1289 126.032 60.9471 125.688C60.7653 125.339 60.5096 125.064 60.1801 124.864C59.8543 124.663 59.4717 124.562 59.0323 124.562C58.5551 124.562 58.1384 124.68 57.7823 124.915C57.4301 125.146 57.1573 125.449 56.9641 125.824C56.7748 126.195 56.6801 126.598 56.6801 127.034V128.028C56.6801 128.612 56.7823 129.108 56.9869 129.517C57.1952 129.926 57.485 130.239 57.8562 130.455C58.2274 130.667 58.6611 130.773 59.1573 130.773C59.4793 130.773 59.7729 130.727 60.038 130.636C60.3032 130.542 60.5323 130.402 60.7255 130.216C60.9187 130.03 61.0664 129.801 61.1687 129.528L62.7766 129.818C62.6479 130.292 62.4168 130.706 62.0835 131.062C61.7539 131.415 61.3391 131.689 60.8391 131.886C60.3429 132.08 59.7766 132.176 59.1403 132.176ZM72.7473 132H68.9803V120.364H72.8666C74.0068 120.364 74.986 120.597 75.8041 121.062C76.6223 121.525 77.2492 122.189 77.6848 123.057C78.1242 123.92 78.3439 124.956 78.3439 126.165C78.3439 127.377 78.1223 128.419 77.6791 129.29C77.2398 130.161 76.6034 130.831 75.7701 131.301C74.9367 131.767 73.9291 132 72.7473 132ZM70.736 130.466H72.6507C73.5371 130.466 74.2738 130.299 74.861 129.966C75.4481 129.629 75.8875 129.142 76.1791 128.506C76.4708 127.866 76.6166 127.085 76.6166 126.165C76.6166 125.252 76.4708 124.477 76.1791 123.841C75.8913 123.205 75.4613 122.722 74.8894 122.392C74.3174 122.062 73.6072 121.898 72.7587 121.898H70.736V130.466ZM84.0722 132.176C83.2123 132.176 82.4718 131.992 81.8506 131.625C81.2331 131.254 80.7559 130.733 80.4187 130.062C80.0854 129.388 79.9187 128.598 79.9187 127.693C79.9187 126.799 80.0854 126.011 80.4187 125.33C80.7559 124.648 81.2256 124.116 81.8278 123.733C82.4339 123.35 83.1422 123.159 83.9528 123.159C84.4453 123.159 84.9225 123.241 85.3847 123.403C85.8468 123.566 86.2616 123.822 86.629 124.17C86.9964 124.519 87.2862 124.972 87.4983 125.528C87.7104 126.081 87.8165 126.754 87.8165 127.545V128.148H80.879V126.875H86.1517C86.1517 126.428 86.0608 126.032 85.879 125.688C85.6972 125.339 85.4415 125.064 85.1119 124.864C84.7862 124.663 84.4036 124.562 83.9642 124.562C83.4869 124.562 83.0703 124.68 82.7142 124.915C82.3619 125.146 82.0892 125.449 81.896 125.824C81.7066 126.195 81.6119 126.598 81.6119 127.034V128.028C81.6119 128.612 81.7142 129.108 81.9187 129.517C82.1271 129.926 82.4169 130.239 82.7881 130.455C83.1593 130.667 83.593 130.773 84.0892 130.773C84.4112 130.773 84.7047 130.727 84.9699 130.636C85.235 130.542 85.4642 130.402 85.6574 130.216C85.8506 130.03 85.9983 129.801 86.1006 129.528L87.7085 129.818C87.5797 130.292 87.3487 130.706 87.0153 131.062C86.6858 131.415 86.271 131.689 85.771 131.886C85.2748 132.08 84.7085 132.176 84.0722 132.176ZM96.1612 125.403L94.6214 125.676C94.557 125.479 94.4548 125.292 94.3146 125.114C94.1782 124.936 93.9926 124.79 93.7578 124.676C93.5229 124.562 93.2294 124.506 92.8771 124.506C92.396 124.506 91.9945 124.614 91.6726 124.83C91.3506 125.042 91.1896 125.316 91.1896 125.653C91.1896 125.945 91.2976 126.18 91.5135 126.358C91.7294 126.536 92.0779 126.682 92.5589 126.795L93.9453 127.114C94.7483 127.299 95.3468 127.585 95.7407 127.972C96.1347 128.358 96.3317 128.86 96.3317 129.477C96.3317 130 96.1801 130.466 95.8771 130.875C95.5779 131.28 95.1593 131.598 94.6214 131.83C94.0873 132.061 93.468 132.176 92.7635 132.176C91.7862 132.176 90.9888 131.968 90.3714 131.551C89.754 131.131 89.3752 130.534 89.2351 129.761L90.8771 129.511C90.9794 129.939 91.1896 130.263 91.5078 130.483C91.826 130.699 92.2407 130.807 92.7521 130.807C93.3089 130.807 93.754 130.691 94.0873 130.46C94.4207 130.225 94.5873 129.939 94.5873 129.602C94.5873 129.33 94.4851 129.1 94.2805 128.915C94.0798 128.729 93.771 128.589 93.3544 128.494L91.8771 128.17C91.0627 127.985 90.4604 127.689 90.0703 127.284C89.6839 126.879 89.4907 126.366 89.4907 125.744C89.4907 125.229 89.6347 124.778 89.9226 124.392C90.2104 124.006 90.6082 123.705 91.1157 123.489C91.6233 123.269 92.2048 123.159 92.8601 123.159C93.8032 123.159 94.5457 123.364 95.0873 123.773C95.629 124.178 95.987 124.722 96.1612 125.403ZM98.1195 132V123.273H99.8184V132H98.1195ZM98.9775 121.926C98.682 121.926 98.4283 121.828 98.2161 121.631C98.0078 121.43 97.9036 121.191 97.9036 120.915C97.9036 120.634 98.0078 120.396 98.2161 120.199C98.4283 119.998 98.682 119.898 98.9775 119.898C99.273 119.898 99.5248 119.998 99.7332 120.199C99.9453 120.396 100.051 120.634 100.051 120.915C100.051 121.191 99.9453 121.43 99.7332 121.631C99.5248 121.828 99.273 121.926 98.9775 121.926ZM105.683 135.455C104.99 135.455 104.393 135.364 103.893 135.182C103.397 135 102.992 134.759 102.677 134.46C102.363 134.161 102.128 133.833 101.973 133.477L103.433 132.875C103.535 133.042 103.672 133.218 103.842 133.403C104.016 133.593 104.251 133.754 104.547 133.886C104.846 134.019 105.23 134.085 105.7 134.085C106.344 134.085 106.876 133.928 107.297 133.614C107.717 133.303 107.927 132.807 107.927 132.125V130.409H107.819C107.717 130.595 107.569 130.801 107.376 131.028C107.187 131.256 106.925 131.453 106.592 131.619C106.259 131.786 105.825 131.869 105.291 131.869C104.602 131.869 103.98 131.708 103.427 131.386C102.878 131.061 102.442 130.581 102.121 129.949C101.802 129.312 101.643 128.53 101.643 127.602C101.643 126.674 101.8 125.879 102.115 125.216C102.433 124.553 102.869 124.045 103.422 123.693C103.975 123.337 104.602 123.159 105.302 123.159C105.844 123.159 106.281 123.25 106.615 123.432C106.948 123.61 107.208 123.818 107.393 124.057C107.583 124.295 107.728 124.506 107.831 124.688H107.956V123.273H109.621V132.193C109.621 132.943 109.446 133.559 109.098 134.04C108.749 134.521 108.278 134.877 107.683 135.108C107.092 135.339 106.425 135.455 105.683 135.455ZM105.666 130.46C106.155 130.46 106.567 130.347 106.905 130.119C107.246 129.888 107.503 129.559 107.677 129.131C107.855 128.699 107.944 128.182 107.944 127.58C107.944 126.992 107.857 126.475 107.683 126.028C107.509 125.581 107.253 125.233 106.916 124.983C106.579 124.729 106.162 124.602 105.666 124.602C105.155 124.602 104.728 124.735 104.388 125C104.047 125.261 103.789 125.617 103.615 126.068C103.444 126.519 103.359 127.023 103.359 127.58C103.359 128.152 103.446 128.653 103.621 129.085C103.795 129.517 104.052 129.854 104.393 130.097C104.738 130.339 105.162 130.46 105.666 130.46ZM113.518 126.818V132H111.819V123.273H113.45V124.693H113.558C113.758 124.231 114.073 123.86 114.501 123.58C114.933 123.299 115.476 123.159 116.131 123.159C116.726 123.159 117.247 123.284 117.694 123.534C118.141 123.78 118.487 124.148 118.734 124.636C118.98 125.125 119.103 125.729 119.103 126.449V132H117.404V126.653C117.404 126.021 117.239 125.527 116.91 125.17C116.58 124.811 116.128 124.631 115.552 124.631C115.158 124.631 114.808 124.716 114.501 124.886C114.198 125.057 113.957 125.307 113.779 125.636C113.605 125.962 113.518 126.356 113.518 126.818ZM125.063 132.176C124.203 132.176 123.462 131.992 122.841 131.625C122.224 131.254 121.746 130.733 121.409 130.062C121.076 129.388 120.909 128.598 120.909 127.693C120.909 126.799 121.076 126.011 121.409 125.33C121.746 124.648 122.216 124.116 122.818 123.733C123.425 123.35 124.133 123.159 124.943 123.159C125.436 123.159 125.913 123.241 126.375 123.403C126.837 123.566 127.252 123.822 127.62 124.17C127.987 124.519 128.277 124.972 128.489 125.528C128.701 126.081 128.807 126.754 128.807 127.545V128.148H121.87V126.875H127.142C127.142 126.428 127.051 126.032 126.87 125.688C126.688 125.339 126.432 125.064 126.103 124.864C125.777 124.663 125.394 124.562 124.955 124.562C124.478 124.562 124.061 124.68 123.705 124.915C123.353 125.146 123.08 125.449 122.887 125.824C122.697 126.195 122.603 126.598 122.603 127.034V128.028C122.603 128.612 122.705 129.108 122.909 129.517C123.118 129.926 123.407 130.239 123.779 130.455C124.15 130.667 124.584 130.773 125.08 130.773C125.402 130.773 125.695 130.727 125.961 130.636C126.226 130.542 126.455 130.402 126.648 130.216C126.841 130.03 126.989 129.801 127.091 129.528L128.699 129.818C128.57 130.292 128.339 130.706 128.006 131.062C127.676 131.415 127.262 131.689 126.762 131.886C126.265 132.08 125.699 132.176 125.063 132.176ZM130.612 132V123.273H132.254V124.659H132.345C132.504 124.189 132.784 123.82 133.186 123.551C133.591 123.278 134.05 123.142 134.561 123.142C134.667 123.142 134.792 123.146 134.936 123.153C135.084 123.161 135.199 123.17 135.283 123.182V124.807C135.214 124.788 135.093 124.767 134.919 124.744C134.745 124.718 134.57 124.705 134.396 124.705C133.995 124.705 133.637 124.79 133.322 124.96C133.012 125.127 132.765 125.36 132.584 125.659C132.402 125.955 132.311 126.292 132.311 126.67V132H130.612ZM144.213 132.165C143.433 132.165 142.761 132.023 142.196 131.739C141.636 131.455 141.204 131.068 140.901 130.58C140.598 130.087 140.446 129.53 140.446 128.909C140.446 128.436 140.545 128.015 140.742 127.648C140.939 127.277 141.213 126.934 141.566 126.619C141.918 126.305 142.325 125.989 142.787 125.67L144.662 124.347C144.98 124.138 145.229 123.919 145.407 123.688C145.585 123.453 145.674 123.163 145.674 122.818C145.674 122.545 145.556 122.284 145.321 122.034C145.087 121.784 144.772 121.659 144.378 121.659C144.105 121.659 143.865 121.725 143.657 121.858C143.452 121.991 143.291 122.161 143.174 122.369C143.06 122.574 143.003 122.79 143.003 123.017C143.003 123.282 143.075 123.549 143.219 123.818C143.367 124.087 143.556 124.366 143.787 124.653C144.018 124.937 144.261 125.233 144.515 125.54L149.918 132H147.997L143.526 126.744C143.151 126.301 142.802 125.884 142.48 125.494C142.158 125.1 141.897 124.703 141.696 124.301C141.499 123.896 141.401 123.458 141.401 122.989C141.401 122.455 141.522 121.981 141.765 121.568C142.011 121.152 142.354 120.826 142.793 120.591C143.232 120.356 143.747 120.239 144.338 120.239C144.937 120.239 145.45 120.356 145.878 120.591C146.31 120.822 146.641 121.131 146.872 121.517C147.107 121.9 147.225 122.318 147.225 122.773C147.225 123.326 147.087 123.814 146.81 124.239C146.537 124.659 146.16 125.045 145.679 125.398L143.344 127.119C142.89 127.453 142.573 127.782 142.395 128.108C142.221 128.43 142.134 128.682 142.134 128.864C142.134 129.197 142.219 129.506 142.39 129.79C142.564 130.074 142.806 130.301 143.117 130.472C143.431 130.642 143.799 130.727 144.219 130.727C144.651 130.727 145.071 130.634 145.48 130.449C145.893 130.259 146.266 129.989 146.6 129.636C146.937 129.284 147.204 128.862 147.401 128.369C147.598 127.877 147.696 127.326 147.696 126.716H149.23C149.23 127.466 149.145 128.1 148.975 128.619C148.804 129.134 148.598 129.555 148.355 129.881C148.117 130.203 147.891 130.455 147.679 130.636C147.611 130.697 147.547 130.758 147.486 130.818C147.426 130.879 147.361 130.939 147.293 131C146.899 131.398 146.422 131.691 145.861 131.881C145.304 132.07 144.755 132.165 144.213 132.165ZM156.477 120.364L159.715 129.841H159.846L163.085 120.364H164.982L160.795 132H158.766L154.579 120.364H156.477ZM166.446 132V123.273H168.145V132H166.446ZM167.304 121.926C167.009 121.926 166.755 121.828 166.543 121.631C166.335 121.43 166.231 121.191 166.231 120.915C166.231 120.634 166.335 120.396 166.543 120.199C166.755 119.998 167.009 119.898 167.304 119.898C167.6 119.898 167.852 119.998 168.06 120.199C168.272 120.396 168.378 120.634 168.378 120.915C168.378 121.191 168.272 121.43 168.06 121.631C167.852 121.828 167.6 121.926 167.304 121.926ZM176.891 125.403L175.351 125.676C175.286 125.479 175.184 125.292 175.044 125.114C174.908 124.936 174.722 124.79 174.487 124.676C174.252 124.562 173.959 124.506 173.606 124.506C173.125 124.506 172.724 124.614 172.402 124.83C172.08 125.042 171.919 125.316 171.919 125.653C171.919 125.945 172.027 126.18 172.243 126.358C172.459 126.536 172.807 126.682 173.288 126.795L174.675 127.114C175.478 127.299 176.076 127.585 176.47 127.972C176.864 128.358 177.061 128.86 177.061 129.477C177.061 130 176.91 130.466 176.606 130.875C176.307 131.28 175.889 131.598 175.351 131.83C174.817 132.061 174.197 132.176 173.493 132.176C172.516 132.176 171.718 131.968 171.101 131.551C170.483 131.131 170.105 130.534 169.964 129.761L171.606 129.511C171.709 129.939 171.919 130.263 172.237 130.483C172.555 130.699 172.97 130.807 173.481 130.807C174.038 130.807 174.483 130.691 174.817 130.46C175.15 130.225 175.317 129.939 175.317 129.602C175.317 129.33 175.214 129.1 175.01 128.915C174.809 128.729 174.5 128.589 174.084 128.494L172.606 128.17C171.792 127.985 171.19 127.689 170.8 127.284C170.413 126.879 170.22 126.366 170.22 125.744C170.22 125.229 170.364 124.778 170.652 124.392C170.94 124.006 171.338 123.705 171.845 123.489C172.353 123.269 172.934 123.159 173.589 123.159C174.533 123.159 175.275 123.364 175.817 123.773C176.358 124.178 176.716 124.722 176.891 125.403ZM184.377 128.381V123.273H186.082V132H184.411V130.489H184.321C184.12 130.955 183.798 131.343 183.355 131.653C182.915 131.96 182.368 132.114 181.713 132.114C181.152 132.114 180.656 131.991 180.224 131.744C179.796 131.494 179.459 131.125 179.213 130.636C178.97 130.148 178.849 129.544 178.849 128.824V123.273H180.548V128.619C180.548 129.214 180.713 129.687 181.042 130.04C181.372 130.392 181.8 130.568 182.326 130.568C182.644 130.568 182.961 130.489 183.275 130.33C183.593 130.17 183.856 129.93 184.065 129.608C184.277 129.286 184.381 128.877 184.377 128.381ZM190.824 132.193C190.271 132.193 189.771 132.091 189.324 131.886C188.877 131.678 188.523 131.377 188.262 130.983C188.004 130.589 187.875 130.106 187.875 129.534C187.875 129.042 187.97 128.636 188.16 128.318C188.349 128 188.605 127.748 188.927 127.562C189.249 127.377 189.608 127.237 190.006 127.142C190.404 127.047 190.809 126.975 191.222 126.926C191.745 126.866 192.169 126.816 192.495 126.778C192.821 126.737 193.057 126.67 193.205 126.58C193.353 126.489 193.427 126.341 193.427 126.136V126.097C193.427 125.6 193.286 125.216 193.006 124.943C192.73 124.67 192.317 124.534 191.768 124.534C191.196 124.534 190.745 124.661 190.415 124.915C190.089 125.165 189.864 125.443 189.739 125.75L188.143 125.386C188.332 124.856 188.608 124.428 188.972 124.102C189.339 123.773 189.762 123.534 190.239 123.386C190.716 123.235 191.218 123.159 191.745 123.159C192.093 123.159 192.463 123.201 192.853 123.284C193.247 123.364 193.614 123.511 193.955 123.727C194.3 123.943 194.582 124.252 194.802 124.653C195.021 125.051 195.131 125.568 195.131 126.205V132H193.472V130.807H193.404C193.294 131.027 193.129 131.242 192.91 131.455C192.69 131.667 192.408 131.843 192.063 131.983C191.718 132.123 191.305 132.193 190.824 132.193ZM191.194 130.83C191.663 130.83 192.065 130.737 192.398 130.551C192.735 130.366 192.991 130.123 193.165 129.824C193.343 129.521 193.432 129.197 193.432 128.852V127.727C193.372 127.788 193.254 127.845 193.08 127.898C192.91 127.947 192.714 127.991 192.495 128.028C192.275 128.062 192.061 128.095 191.853 128.125C191.644 128.152 191.47 128.174 191.33 128.193C191 128.235 190.699 128.305 190.427 128.403C190.158 128.502 189.942 128.644 189.779 128.83C189.62 129.011 189.54 129.254 189.54 129.557C189.54 129.977 189.696 130.295 190.006 130.511C190.317 130.723 190.713 130.83 191.194 130.83ZM199.013 120.364V132H197.314V120.364H199.013ZM211.856 123.42C211.795 122.883 211.545 122.466 211.106 122.17C210.666 121.871 210.113 121.722 209.447 121.722C208.969 121.722 208.556 121.797 208.208 121.949C207.859 122.097 207.589 122.301 207.395 122.562C207.206 122.82 207.111 123.114 207.111 123.443C207.111 123.72 207.176 123.958 207.304 124.159C207.437 124.36 207.609 124.528 207.822 124.665C208.037 124.797 208.269 124.909 208.515 125C208.761 125.087 208.998 125.159 209.225 125.216L210.361 125.511C210.733 125.602 211.113 125.725 211.503 125.881C211.894 126.036 212.255 126.241 212.589 126.494C212.922 126.748 213.191 127.062 213.395 127.438C213.604 127.812 213.708 128.261 213.708 128.784C213.708 129.443 213.537 130.028 213.197 130.54C212.859 131.051 212.369 131.455 211.725 131.75C211.085 132.045 210.31 132.193 209.401 132.193C208.53 132.193 207.776 132.055 207.14 131.778C206.503 131.502 206.005 131.11 205.645 130.602C205.286 130.091 205.087 129.485 205.049 128.784H206.81C206.844 129.205 206.981 129.555 207.219 129.835C207.462 130.112 207.77 130.318 208.145 130.455C208.524 130.587 208.939 130.653 209.39 130.653C209.886 130.653 210.327 130.576 210.714 130.42C211.104 130.261 211.411 130.042 211.634 129.761C211.858 129.477 211.969 129.146 211.969 128.767C211.969 128.422 211.871 128.14 211.674 127.92C211.481 127.701 211.217 127.519 210.884 127.375C210.554 127.231 210.181 127.104 209.765 126.994L208.39 126.619C207.458 126.366 206.719 125.992 206.174 125.5C205.632 125.008 205.361 124.356 205.361 123.545C205.361 122.875 205.543 122.29 205.907 121.79C206.27 121.29 206.763 120.902 207.384 120.625C208.005 120.345 208.706 120.205 209.486 120.205C210.274 120.205 210.969 120.343 211.572 120.619C212.178 120.896 212.655 121.277 213.003 121.761C213.352 122.242 213.534 122.795 213.549 123.42H211.856ZM219.663 123.273V124.636H214.896V123.273H219.663ZM216.175 121.182H217.874V129.438C217.874 129.767 217.923 130.015 218.021 130.182C218.12 130.345 218.247 130.456 218.402 130.517C218.561 130.574 218.733 130.602 218.919 130.602C219.055 130.602 219.175 130.593 219.277 130.574C219.379 130.555 219.459 130.54 219.516 130.528L219.822 131.932C219.724 131.97 219.584 132.008 219.402 132.045C219.22 132.087 218.993 132.11 218.72 132.114C218.273 132.121 217.857 132.042 217.47 131.875C217.084 131.708 216.771 131.451 216.533 131.102C216.294 130.754 216.175 130.316 216.175 129.79V121.182ZM225.045 132.176C224.227 132.176 223.513 131.989 222.903 131.614C222.293 131.239 221.82 130.714 221.483 130.04C221.145 129.366 220.977 128.578 220.977 127.676C220.977 126.771 221.145 125.979 221.483 125.301C221.82 124.623 222.293 124.097 222.903 123.722C223.513 123.347 224.227 123.159 225.045 123.159C225.863 123.159 226.577 123.347 227.187 123.722C227.797 124.097 228.27 124.623 228.608 125.301C228.945 125.979 229.113 126.771 229.113 127.676C229.113 128.578 228.945 129.366 228.608 130.04C228.27 130.714 227.797 131.239 227.187 131.614C226.577 131.989 225.863 132.176 225.045 132.176ZM225.051 130.75C225.581 130.75 226.02 130.61 226.369 130.33C226.717 130.049 226.975 129.676 227.142 129.21C227.312 128.744 227.397 128.231 227.397 127.67C227.397 127.114 227.312 126.602 227.142 126.136C226.975 125.667 226.717 125.29 226.369 125.006C226.02 124.722 225.581 124.58 225.051 124.58C224.517 124.58 224.073 124.722 223.721 125.006C223.373 125.29 223.113 125.667 222.943 126.136C222.776 126.602 222.693 127.114 222.693 127.67C222.693 128.231 222.776 128.744 222.943 129.21C223.113 129.676 223.373 130.049 223.721 130.33C224.073 130.61 224.517 130.75 225.051 130.75ZM230.93 132V123.273H232.572V124.659H232.663C232.822 124.189 233.102 123.82 233.503 123.551C233.909 123.278 234.367 123.142 234.878 123.142C234.984 123.142 235.109 123.146 235.253 123.153C235.401 123.161 235.517 123.17 235.6 123.182V124.807C235.532 124.788 235.411 124.767 235.236 124.744C235.062 124.718 234.888 124.705 234.714 124.705C234.312 124.705 233.954 124.79 233.64 124.96C233.329 125.127 233.083 125.36 232.901 125.659C232.719 125.955 232.628 126.292 232.628 126.67V132H230.93ZM238.33 135.273C238.076 135.273 237.845 135.252 237.636 135.21C237.428 135.172 237.273 135.131 237.171 135.085L237.58 133.693C237.89 133.777 238.167 133.813 238.409 133.801C238.652 133.79 238.866 133.699 239.051 133.528C239.241 133.358 239.407 133.08 239.551 132.693L239.761 132.114L236.568 123.273H238.386L240.597 130.045H240.688L242.898 123.273H244.722L241.125 133.165C240.958 133.619 240.746 134.004 240.489 134.318C240.231 134.636 239.924 134.875 239.568 135.034C239.212 135.193 238.799 135.273 238.33 135.273ZM250.312 123.273V124.636H245.545V123.273H250.312ZM246.824 121.182H248.522V129.438C248.522 129.767 248.572 130.015 248.67 130.182C248.769 130.345 248.895 130.456 249.051 130.517C249.21 130.574 249.382 130.602 249.568 130.602C249.704 130.602 249.824 130.593 249.926 130.574C250.028 130.555 250.108 130.54 250.164 130.528L250.471 131.932C250.373 131.97 250.233 132.008 250.051 132.045C249.869 132.087 249.642 132.11 249.369 132.114C248.922 132.121 248.505 132.042 248.119 131.875C247.733 131.708 247.42 131.451 247.181 131.102C246.943 130.754 246.824 130.316 246.824 129.79V121.182ZM255.779 132.176C254.919 132.176 254.179 131.992 253.557 131.625C252.94 131.254 252.463 130.733 252.126 130.062C251.792 129.388 251.626 128.598 251.626 127.693C251.626 126.799 251.792 126.011 252.126 125.33C252.463 124.648 252.932 124.116 253.535 123.733C254.141 123.35 254.849 123.159 255.66 123.159C256.152 123.159 256.629 123.241 257.092 123.403C257.554 123.566 257.968 123.822 258.336 124.17C258.703 124.519 258.993 124.972 259.205 125.528C259.417 126.081 259.523 126.754 259.523 127.545V128.148H252.586V126.875H257.859C257.859 126.428 257.768 126.032 257.586 125.688C257.404 125.339 257.148 125.064 256.819 124.864C256.493 124.663 256.11 124.562 255.671 124.562C255.194 124.562 254.777 124.68 254.421 124.915C254.069 125.146 253.796 125.449 253.603 125.824C253.414 126.195 253.319 126.598 253.319 127.034V128.028C253.319 128.612 253.421 129.108 253.626 129.517C253.834 129.926 254.124 130.239 254.495 130.455C254.866 130.667 255.3 130.773 255.796 130.773C256.118 130.773 256.412 130.727 256.677 130.636C256.942 130.542 257.171 130.402 257.364 130.216C257.557 130.03 257.705 129.801 257.807 129.528L259.415 129.818C259.287 130.292 259.056 130.706 258.722 131.062C258.393 131.415 257.978 131.689 257.478 131.886C256.982 132.08 256.415 132.176 255.779 132.176ZM263.027 120.364V132H261.328V120.364H263.027ZM266.932 120.364V132H265.233V120.364H266.932ZM272.898 132.176C272.039 132.176 271.298 131.992 270.677 131.625C270.059 131.254 269.582 130.733 269.245 130.062C268.912 129.388 268.745 128.598 268.745 127.693C268.745 126.799 268.912 126.011 269.245 125.33C269.582 124.648 270.052 124.116 270.654 123.733C271.26 123.35 271.968 123.159 272.779 123.159C273.272 123.159 273.749 123.241 274.211 123.403C274.673 123.566 275.088 123.822 275.455 124.17C275.823 124.519 276.112 124.972 276.325 125.528C276.537 126.081 276.643 126.754 276.643 127.545V128.148H269.705V126.875H274.978C274.978 126.428 274.887 126.032 274.705 125.688C274.523 125.339 274.268 125.064 273.938 124.864C273.612 124.663 273.23 124.562 272.79 124.562C272.313 124.562 271.897 124.68 271.54 124.915C271.188 125.146 270.915 125.449 270.722 125.824C270.533 126.195 270.438 126.598 270.438 127.034V128.028C270.438 128.612 270.54 129.108 270.745 129.517C270.953 129.926 271.243 130.239 271.614 130.455C271.986 130.667 272.419 130.773 272.915 130.773C273.237 130.773 273.531 130.727 273.796 130.636C274.061 130.542 274.29 130.402 274.484 130.216C274.677 130.03 274.825 129.801 274.927 129.528L276.535 129.818C276.406 130.292 276.175 130.706 275.842 131.062C275.512 131.415 275.097 131.689 274.597 131.886C274.101 132.08 273.535 132.176 272.898 132.176ZM278.448 132V123.273H280.09V124.659H280.181C280.34 124.189 280.62 123.82 281.022 123.551C281.427 123.278 281.885 123.142 282.397 123.142C282.503 123.142 282.628 123.146 282.772 123.153C282.919 123.161 283.035 123.17 283.118 123.182V124.807C283.05 124.788 282.929 124.767 282.754 124.744C282.58 124.718 282.406 124.705 282.232 124.705C281.83 124.705 281.472 124.79 281.158 124.96C280.847 125.127 280.601 125.36 280.419 125.659C280.237 125.955 280.147 126.292 280.147 126.67V132H278.448Z" fill="white" fill-opacity="0.55"/>
<defs>
<clipPath id="clip0_245_482">
<rect width="730" height="107" fill="white"/>
</clipPath>
</defs>
</svg>
