<svg width="1376" height="201" viewBox="0 0 1376 201" fill="none" xmlns="http://www.w3.org/2000/svg">
<g clip-path="url(#clip0_8_1770)">
<path d="M24.6719 189.84C13.1643 189.84 6.32386 190 0 190.337C0.997566 184.518 1.33603 177.19 1.33603 166.03V78.1005C1.33603 66.444 0.997566 59.2762 0 51.2922H36.3577C35.182 59.9504 35.0217 64.6165 35.0217 77.6037V160.193H75.3697C89.5494 160.193 95.2141 160.033 103.052 159.022V190.993C96.8886 190.16 88.7121 189.822 75.3697 189.822H24.6719V189.84Z" fill="black"/>
<path d="M218.948 190.994C211.769 190.16 205.766 189.823 191.426 189.823H138.893C126.21 189.823 121.543 189.982 114.382 190.319C115.379 183.666 115.718 177.492 115.718 166.013V75.0846C115.718 64.7587 115.379 58.9393 114.382 50.7779C121.222 51.115 125.889 51.2747 138.893 51.2747H192.085C203.432 51.2747 209.097 50.9376 216.935 50.1037V81.2411C209.257 80.4072 203.254 80.0701 192.085 80.0701H148.726V104.554H184.746C195.754 104.554 199.745 104.394 209.756 103.383V134.183C201.918 133.35 196.253 133.012 184.746 133.012H148.726V160.992H191.746C204.412 160.992 211.751 160.655 218.93 159.821V190.958L218.948 190.994ZM166.095 6.99048L204.448 23.1358L193.617 42.6166L166.273 30.1261L138.751 42.6166L127.742 23.1358L166.095 6.99048Z" fill="black"/>
<path d="M291.485 189.84C292.483 182.513 292.821 175.026 292.821 165.197V75.1023C292.821 66.1071 292.483 58.6199 291.485 50.7957C299.323 51.1328 305.326 51.2924 315.997 51.2924H352.515C385.541 51.2924 403.711 67.1184 403.711 96.0912C403.711 125.064 384.704 143.392 352.355 143.392H326.008V164.7C326.008 174.529 326.507 182.69 327.344 189.84H291.485ZM350.858 115.075C362.526 115.075 369.367 108.582 369.367 97.0847C369.367 85.5879 362.865 79.6088 350.858 79.6088H326.008V115.075H350.858Z" fill="black"/>
<path d="M543.959 51.2922C542.961 58.1229 542.622 64.2794 542.622 75.936V165.196C542.622 176.019 542.961 181.679 543.959 189.84H508.1C509.097 182.85 509.436 176.693 509.436 165.196V132.888H453.233V165.196C453.233 176.019 453.572 182.353 454.569 189.84H418.711C419.708 183.009 420.047 176.853 420.047 165.196V75.936C420.047 64.4391 419.708 58.46 418.711 51.2922H454.569C453.572 59.1165 453.233 65.6101 453.233 75.936V103.578H509.436V75.936C509.436 64.4391 509.097 57.7858 508.1 51.2922H543.959Z" fill="black"/>
<path d="M659.356 189.84C658.02 181.839 657.022 177.509 655.348 171.85L650.841 157.692H603.314L598.807 171.85C596.634 178.503 595.476 183.666 594.638 189.84H555.609C558.103 184.837 559.617 180.845 563.607 169.526L599.626 69.2828C602.619 61.1215 604.133 56.1359 604.97 51.2923H648.489C649.665 56.1182 650.823 60.4473 654.154 69.2828L690.334 169.526C693.504 178.343 696.176 185.174 698.332 189.84H659.302H659.356ZM619.506 47.4601L610.671 35.6438L649.683 0L667.194 23.3131L619.506 47.4601ZM626.828 79.7684L611.312 129.73H642.664L626.828 79.7684Z" fill="black"/>
<path d="M767.752 164.682C767.752 174.671 768.09 181.998 769.088 189.822H732.231C733.229 181.998 733.567 175.167 733.567 164.682V80.7619H713.883C703.373 80.7619 700.541 80.9216 688.695 81.9329V50.1213C694.199 50.7955 703.373 51.2923 713.545 51.2923H786.581C798.249 51.2923 804.929 50.9552 812.589 50.1213V81.9329C805.089 81.099 798.587 80.7619 786.581 80.7619H767.734V164.682H767.752Z" fill="black"/>
<path d="M875.827 63.428C875.827 77.4974 864.427 88.8701 850.443 88.8701C836.459 88.8701 824.969 77.4974 824.969 63.5344C824.969 49.5714 836.37 38.0923 850.443 38.0923C864.516 38.0923 875.827 49.465 875.827 63.428ZM853.97 45.9343C860.81 45.9343 864.854 49.5537 864.854 55.6569C864.854 60.7312 863.091 63.2151 858.53 64.8651C861.22 65.5925 861.844 66.4086 864.124 71.8022C865.264 74.5877 866.19 76.9829 867.134 79.1475C871.178 74.8006 873.244 69.3183 873.244 63.5344C873.244 50.9198 863.091 40.6649 850.461 40.6649C837.831 40.6649 827.57 50.7956 827.57 63.5344C827.57 76.2732 837.831 86.2975 850.461 86.2975C855.84 86.2975 860.917 84.541 864.961 81.1168H857.087C856.874 79.662 856.357 77.9055 855.128 74.7119C853.685 70.7732 853.364 70.1522 852.224 69.3361C851.405 68.7151 850.568 68.4135 849.321 68.4135H846.007V74.5168C846.007 77.6216 846.114 78.7571 846.31 81.1346H836.37C836.584 79.1652 836.673 77.5152 836.673 74.6232V52.2859C836.673 49.5892 836.566 47.5311 836.37 45.8811C837.19 45.9875 840.2 45.9875 842.89 45.9875H853.97V45.9343ZM851.69 60.3231C853.863 60.3231 855.217 58.9747 855.217 56.9166C855.217 54.8586 853.863 53.8118 851.69 53.8118H845.989V60.3231H851.69Z" fill="black"/>
<path d="M975.281 183.009C975.281 189.166 973.607 193.335 970.115 195.997C966.944 198.321 960.603 199.492 951.607 199.492C948.774 199.492 946.263 199.332 938.763 198.995C937.926 192.998 937.427 190.497 935.77 185.848C929.322 188.072 917.262 191.679 899.591 196.671C897.257 197.345 896.26 197.664 894.585 198.339L887.086 175.363C894.763 175.203 910.6 172.524 923.105 169.029C919.934 165.871 912.773 159.874 909.103 157.212C902.103 159.04 899.431 159.714 891.254 161.204C889.259 150.719 887.584 146.053 882.579 136.72C891.753 136.224 900.749 134.893 910.938 132.728C921.11 130.564 928.449 128.24 936.786 124.23H913.771C914.269 120.735 914.608 117.896 914.608 114.578V110.249C914.608 107.925 914.608 107.251 914.946 103.915C908.783 111.58 902.94 116.565 893.605 122.74C890.613 113.744 888.439 109.415 883.274 102.585C891.949 98.9297 898.95 94.4233 905.452 88.7635H899.787C894.621 88.7635 890.613 88.9232 886.444 89.4377V69.2827C890.951 69.9569 894.781 70.2763 900.125 70.2763H914.465V65.1133C909.299 65.273 908.8 65.4504 895.957 65.7875C893.463 57.6262 891.788 53.6342 887.959 47.4777C891.967 47.6374 893.962 47.6374 896.135 47.6374C918.651 47.6374 939.832 44.9761 946.833 41.1438L960.175 59.631C953.335 61.1214 945.336 62.2924 936.661 63.2859V70.2763H943.163C950.342 70.2763 952.497 70.1166 955.668 69.7795V70.4537C964.664 60.9617 969.848 51.9665 971.843 41.9777L995.856 45.81C994.36 48.4713 994.021 49.1455 991.527 54.6278H1028.54C1033.21 54.6278 1035.88 54.4681 1038.56 53.9536C1038.06 56.4552 1038.06 57.7859 1038.06 63.7827C1037.72 87.77 1035.56 106.577 1032.39 113.248C1028.88 120.575 1022.88 123.573 1011.55 123.573C1007.04 123.573 1003.71 123.414 996.212 122.74C995.713 116.406 994.876 112.573 993.041 106.914C989.532 111.402 987.377 113.567 981.373 119.067C978.042 113.23 973.037 107.57 966.695 102.088C974.871 95.4346 977.205 93.27 980.875 88.4264C984.046 83.9377 986.717 79.6086 989.051 74.4457H980.875C976.207 81.7732 973.197 85.2683 966.036 92.4361C964.7 90.9458 963.702 89.5974 963.043 88.7813C959.213 83.9554 958.376 82.9441 955.704 80.2828V89.1006C951.696 88.941 951.197 88.7635 945.532 88.7635C950.698 93.0926 954.546 95.2571 962.046 98.4152C957.04 103.915 954.867 107.41 951.874 114.561L952.551 113.886H973.892C980.055 119.883 984.562 122.882 992.899 126.217C1007.74 132.054 1023.08 135.212 1043.92 136.703C1039.25 146.035 1037.42 151.358 1035.42 161.683C1024.91 160.016 1021.08 159.182 1015.08 157.692L1013.08 159.359C1007.92 163.688 1005.58 165.356 999.401 168.851C1012.24 173.517 1022.08 175.682 1038.09 177.013C1032.59 184.997 1030.25 189.663 1027.26 198.498C1012.24 195.997 1003.41 193.335 991.403 188.172C986.397 186.008 983.226 184.518 975.388 180.011V183.009H975.281ZM945.425 177.846C949.594 177.687 950.77 176.853 950.77 173.855V153.043C950.77 149.051 950.431 145.379 949.932 142.558H975.94C975.441 146.39 975.263 149.211 975.263 153.717V179.355L985.097 164.54C982.104 160.548 981.765 160.211 979.093 157.372C984.437 154.533 986.593 153.203 991.599 149.708C978.755 144.385 972.752 140.553 962.42 131.22C952.587 139.878 946.245 143.711 933.9 149.033C937.071 151.695 938.229 152.688 942.076 156.361L930.907 166.687C935.575 165.196 937.57 164.363 944.909 161.861L945.408 177.846H945.425ZM936.251 113.407C936.251 117.577 936.412 120.735 937.089 124.07C943.929 120.735 947.599 118.251 951.268 115.075C943.769 110.586 940.099 107.588 935.931 102.922C936.091 105.92 936.269 107.41 936.269 109.256V113.425L936.251 113.407ZM1009.47 74.4279C1006.47 84.4167 1002.3 93.412 996.462 102.07C1000.29 102.744 1002.8 102.904 1005.14 102.904C1008.65 102.904 1010.3 102.23 1011.14 100.58C1013.14 96.5878 1014.65 87.2555 1015.15 74.4279H1009.48H1009.47Z" fill="black"/>
<path d="M1064.65 85.2506C1077.16 92.241 1083.82 96.7475 1095.67 105.725L1081.17 126.874C1068.82 116.548 1062.32 111.881 1049.97 104.554L1064.65 85.2329V85.2506ZM1084.84 84.5942C1073.67 74.6054 1067.32 69.6021 1054.82 61.6182L1070.66 43.3083C1082.5 50.139 1089.16 54.9649 1100.17 63.7827L1094.67 71.2699C1099.34 71.7666 1104.34 72.1037 1111.52 72.1037V58.9569C1111.52 52.4633 1111.36 48.631 1110.68 44.639H1137.53C1137.03 47.4777 1136.87 50.9729 1136.87 58.123V72.1037H1158.39V58.6198C1158.39 51.452 1158.23 47.7971 1157.71 44.639H1184.56C1183.9 48.2939 1183.72 51.9665 1183.72 58.7972V72.1215H1184.89C1194.07 72.1215 1200.57 71.7844 1204.9 71.1279V96.7652C1198.9 96.2685 1192.39 95.9314 1185.39 95.9314H1183.72V123.911H1188.39C1196.38 123.911 1202.39 123.574 1207.57 122.917V148.732C1202.07 148.058 1196.06 147.738 1188.72 147.738H1173.89C1178.05 153.895 1179.73 155.9 1184.56 160.566C1191.56 167.219 1198.4 172.222 1208.23 177.545C1201.07 186.203 1197.22 191.703 1192.06 201.018C1175.2 189.698 1163.54 178.201 1151.37 160.388L1172.21 147.738H1109.51C1102.67 147.738 1096.33 148.075 1091.5 148.572C1086.83 165.392 1085.49 169.561 1080.67 181.218C1077.99 187.711 1076.5 190.71 1074.66 194.205C1073.33 196.866 1073.17 197.043 1071.83 200.042L1050.49 180.721C1057.99 172.222 1065.67 154.569 1071.83 130.936L1090.84 144.101V122.953C1095.51 123.627 1102.01 123.946 1109.53 123.946H1111.52V95.9668C1102.68 95.9668 1098.85 96.3039 1094.01 96.8007V72.157L1084.84 84.6474V84.5942ZM1139.7 160.53C1128.35 179.514 1119.7 189.343 1103.68 201C1096.5 191.845 1093.17 188.51 1084.68 181.679C1092.01 177.19 1096.02 174.192 1101.69 168.851C1108.87 162.021 1112.52 157.354 1117.2 148.377L1139.72 160.53H1139.7ZM1158.37 123.893V95.9136H1136.85V123.893H1158.37Z" fill="black"/>
<path d="M1300.95 137.874H1344.97C1350.81 137.874 1353.64 137.714 1355.8 137.377L1368.14 149.034C1366.81 150.524 1366.31 151.198 1364.31 154.037C1357.97 162.695 1353.64 167.698 1346.96 173.855C1358.13 176.019 1364.31 176.853 1375.31 177.51C1370.14 186.168 1367.81 191.668 1365.47 200.663C1348.3 197.824 1336.79 194.666 1323.95 189.006C1312.1 194.666 1304.26 197.327 1288.59 200.663C1286.09 192.165 1284.08 187.339 1280.25 180.845C1276.74 197.505 1272.07 199.989 1245.57 199.989C1242.74 199.989 1240.4 199.989 1235.74 199.652C1234.56 190.16 1233.4 184.837 1230.39 175.664C1238.07 177.155 1244.89 177.829 1250.89 177.829C1255.22 177.829 1256.9 177.155 1257.73 175.168C1258.57 173.163 1259.07 169.845 1259.23 164.345H1229.87C1225.71 164.345 1224.71 164.345 1219.54 164.682C1223.55 152.866 1226.04 139.542 1227.04 126.377C1227.04 126.04 1227.2 123.538 1227.38 118.89C1231.55 119.227 1234.72 119.387 1241.06 119.387H1259.41V111.722H1253.07C1247.9 111.722 1245.07 111.882 1241.56 112.219V109.22C1236.06 111.385 1233.22 112.378 1226.04 114.383C1222.37 104.217 1220.38 100.225 1215.21 92.4008C1225.55 90.0766 1231.73 88.4088 1240.4 84.9137C1234.56 78.9168 1228.24 73.2571 1220.4 67.2603L1237.91 53.2795C1241.92 56.615 1242.91 57.6086 1246.25 60.607V44.9585C1250.75 45.6327 1253.92 45.7924 1262.08 45.7924H1293.93C1300.93 45.7924 1303.77 45.6327 1307.77 45.1182C1309.95 51.115 1311.44 53.6166 1316.45 58.9393C1321.45 53.936 1324.95 49.944 1326.96 46.2892C1327.07 46.1827 1327.29 45.7391 1327.62 44.9585L1346.96 56.1183C1343.79 60.4473 1337.29 67.7748 1332.78 72.441C1335.46 74.1087 1336.45 74.7652 1338.95 76.2733C1345.45 70.1168 1347.94 66.9409 1352.13 60.128L1371.31 71.4474C1367.98 75.6168 1362.3 81.4362 1357.97 85.6056C1364.31 88.1072 1367.65 89.1008 1375.98 91.1056C1370.82 98.2734 1367.98 103.596 1365.31 111.58C1367.98 112.574 1368.98 112.911 1372.15 113.745C1371.31 123.733 1370.16 127.229 1367.15 129.73C1363.64 132.888 1357.47 134.059 1345.81 134.059C1327.3 134.059 1323.13 132.391 1323.13 125.064V110.569H1312.3C1310.8 121.728 1306.46 130.209 1298.3 137.874H1300.97H1300.95ZM1286.95 137.217C1289.28 137.554 1289.94 137.714 1293.11 137.714C1289.6 133.385 1286.61 130.546 1281.77 126.891C1281.77 132.551 1281.93 135.053 1282.42 138.051C1278.75 137.714 1276.92 137.714 1269.42 137.714H1248.58C1248.25 140.151 1247.8 142.706 1247.24 145.379H1270.92C1276.58 145.379 1279.75 145.219 1283.26 144.882C1282.92 147.384 1282.92 148.217 1282.76 151.872C1282.26 165.356 1281.77 171.353 1280.59 179.018C1289.76 178.024 1292.93 177.527 1300.77 175.363C1296.27 172.027 1294.11 170.04 1288.61 164.043L1303.28 156.219H1300.27C1293.77 156.219 1290.76 156.379 1286.93 156.893V137.253L1286.95 137.217ZM1256.1 64.6167C1254.26 64.6167 1253.26 64.6167 1250.59 64.7764C1254.26 68.3248 1257.49 71.542 1260.26 74.4281C1264.77 71.4297 1267.1 69.4248 1272.27 64.599H1256.1V64.6167ZM1281.78 122.385C1289.12 116.051 1292.79 107.57 1292.79 96.4105C1292.79 94.5831 1292.79 93.9089 1292.45 91.7444C1296.12 92.0815 1297.96 92.2411 1303.28 92.2411H1323.29C1311.28 83.7427 1305.44 78.2604 1296.78 67.4377C1287.11 79.0943 1280.27 85.7475 1269.26 93.7492C1275.1 93.7492 1278.1 93.5895 1282.42 93.2524C1281.93 96.9073 1281.77 100.243 1281.77 106.08V122.403L1281.78 122.385ZM1309.29 156.201C1313.95 160.371 1317.13 162.535 1323.79 166.03C1328.29 163.192 1330.79 161.205 1336.63 156.201H1309.29ZM1343.47 113.727C1343.47 116.051 1344.47 116.566 1348.64 116.566C1353.64 116.566 1353.98 116.228 1354.3 109.078C1350.13 107.411 1347.46 106.24 1343.47 104.253V113.745V113.727Z" fill="black"/>
<path d="M850.532 93.7668C833.752 93.7668 820.106 80.1764 820.106 63.4634C820.106 46.7503 833.752 33.1599 850.532 33.1599C867.313 33.1599 880.958 46.7503 880.958 63.4634C880.958 80.1764 867.313 93.7668 850.532 93.7668ZM850.532 40.8955C838.045 40.8955 827.873 51.0262 827.873 63.4634C827.873 75.9006 838.045 86.0313 850.532 86.0313C863.019 86.0313 873.191 75.9006 873.191 63.4634C873.191 51.0262 863.019 40.8955 850.532 40.8955Z" fill="black"/>
</g>
<defs>
<clipPath id="clip0_8_1770">
<rect width="1376" height="201" fill="white"/>
</clipPath>
</defs>
</svg>
