<svg width="120" height="120" viewBox="0 0 120 120" fill="none" xmlns="http://www.w3.org/2000/svg">
<rect width="120" height="120" fill="#EC1D25"/>
<g clip-path="url(#clip0_301_1249)">
<path d="M63.12 68.37H87.83C91.11 68.37 92.7 68.28 93.91 68.09L100.84 74.66C100.09 75.5 99.81 75.88 98.69 77.48C95.13 82.36 92.7 85.18 88.95 88.65C95.22 89.87 98.69 90.34 104.86 90.71C101.96 95.59 100.65 98.69 99.34 103.76C89.7 102.16 83.24 100.38 76.03 97.19C69.38 100.38 64.98 101.88 56.18 103.76C54.78 98.97 53.65 96.25 51.5 92.59C49.53 101.98 46.91 103.38 32.03 103.38C30.44 103.38 29.13 103.38 26.51 103.19C25.85 97.84 25.2 94.84 23.51 89.67C27.82 90.51 31.65 90.89 35.02 90.89C37.45 90.89 38.39 90.51 38.86 89.39C39.33 88.26 39.61 86.39 39.7 83.29H23.24C20.9 83.29 20.34 83.29 17.44 83.48C19.69 76.82 21.09 69.31 21.65 61.89C21.65 61.7 21.74 60.29 21.84 57.67C24.18 57.86 25.96 57.95 29.52 57.95H39.82V53.63H36.26C33.36 53.63 31.77 53.72 29.8 53.91V52.22C26.71 53.44 25.12 54 21.09 55.13C19.03 49.4 17.91 47.15 15.01 42.74C20.81 41.43 24.28 40.49 29.15 38.52C25.87 35.14 22.32 31.95 17.92 28.57L27.75 20.69C30 22.57 30.56 23.13 32.43 24.82V16C34.96 16.38 36.74 16.47 41.32 16.47H59.2C63.13 16.47 64.72 16.38 66.97 16.09C68.19 19.47 69.03 20.88 71.84 23.88C74.65 21.06 76.61 18.81 77.74 16.75C77.8 16.69 77.9233 16.44 78.11 16L88.97 22.29C87.19 24.73 83.54 28.86 81.01 31.49C82.51 32.43 83.07 32.8 84.47 33.65C88.12 30.18 89.52 28.39 91.87 24.55L102.64 30.93C100.77 33.28 97.58 36.56 95.15 38.91C98.71 40.32 100.58 40.88 105.26 42.01C102.36 46.05 100.77 49.05 99.27 53.55C100.77 54.11 101.33 54.3 103.11 54.77C102.64 60.4 101.99 62.37 100.3 63.78C98.33 65.56 94.87 66.22 88.32 66.22C77.93 66.22 75.59 65.28 75.59 61.15V52.98H69.51C68.67 59.27 66.23 64.05 61.65 68.37H63.15H63.12ZM55.25 68C56.56 68.19 56.93 68.28 58.71 68.28C56.74 65.84 55.06 64.24 52.34 62.18C52.34 65.37 52.43 66.78 52.71 68.47C50.65 68.28 49.62 68.28 45.41 68.28H33.71C33.5233 69.6533 33.2733 71.0933 32.96 72.6H46.25C49.43 72.6 51.21 72.51 53.18 72.32C52.99 73.73 52.99 74.2 52.9 76.26C52.62 83.86 52.34 87.24 51.68 91.56C56.83 91 58.61 90.72 63.01 89.5C60.48 87.62 59.27 86.5 56.18 83.12L64.42 78.71H62.73C59.08 78.71 57.39 78.8 55.24 79.09V68.02L55.25 68ZM37.94 27.08C36.91 27.08 36.35 27.08 34.85 27.17C36.91 29.17 38.72 30.9833 40.28 32.61C42.81 30.92 44.12 29.79 47.02 27.07H37.94V27.08ZM52.35 59.64C56.47 56.07 58.53 51.29 58.53 45C58.53 43.97 58.53 43.59 58.34 42.37C60.4 42.56 61.43 42.65 64.42 42.65H75.65C68.91 37.86 65.63 34.77 60.77 28.67C55.34 35.24 51.5 38.99 45.32 43.5C48.6 43.5 50.28 43.41 52.71 43.22C52.43 45.28 52.34 47.16 52.34 50.45V59.65L52.35 59.64ZM67.8 78.7C70.42 81.05 72.2 82.27 75.94 84.24C78.47 82.64 79.87 81.52 83.15 78.7H67.8ZM86.99 54.76C86.99 56.07 87.55 56.36 89.89 56.36C92.7 56.36 92.89 56.17 93.07 52.14C90.73 51.2 89.23 50.54 86.99 49.42V54.77V54.76Z" fill="black"/>
</g>
<defs>
<clipPath id="clip0_301_1249">
<rect width="90.24" height="87.76" fill="white" transform="translate(15 16)"/>
</clipPath>
</defs>
</svg>
